<mxfile host="65bd71144e">
    <diagram id="yIo2a51h7xxz-haOQGHv" name="Page-1">
        <mxGraphModel dx="303" dy="1966" grid="1" gridSize="10" guides="1" tooltips="1" connect="1" arrows="1" fold="1" page="1" pageScale="1" pageWidth="827" pageHeight="1169" background="#ffffff" math="0" shadow="0">
            <root>
                <mxCell id="0"/>
                <mxCell id="1" parent="0"/>
                <mxCell id="2" style="edgeStyle=none;html=1;exitX=0.5;exitY=1;exitDx=0;exitDy=0;entryX=0;entryY=0.5;entryDx=0;entryDy=0;dashed=1;strokeColor=#171717;strokeWidth=2;fontColor=#191919;fontSize=18;" parent="1" source="3" target="32" edge="1">
                    <mxGeometry relative="1" as="geometry">
                        <Array as="points">
                            <mxPoint x="1215" y="-520"/>
                        </Array>
                        <mxPoint x="1750" y="-460" as="targetPoint"/>
                    </mxGeometry>
                </mxCell>
                <mxCell id="3" value="rlassoIVselectX" style="whiteSpace=wrap;html=1;fontSize=18;strokeColor=#6F0000;strokeWidth=4;fillColor=#a20025;gradientDirection=north;fontColor=#ffffff;" parent="1" vertex="1">
                    <mxGeometry x="1140" y="-630" width="150" height="60" as="geometry"/>
                </mxCell>
                <mxCell id="4" style="edgeStyle=none;html=1;exitX=0.5;exitY=1;exitDx=0;exitDy=0;entryX=0.5;entryY=0;entryDx=0;entryDy=0;strokeColor=#171717;fontColor=#191919;fontSize=18;" parent="1" source="47" target="3" edge="1">
                    <mxGeometry relative="1" as="geometry">
                        <Array as="points"/>
                    </mxGeometry>
                </mxCell>
                <mxCell id="5" style="edgeStyle=none;html=1;exitX=0;exitY=0.5;exitDx=0;exitDy=0;entryX=0.5;entryY=1;entryDx=0;entryDy=0;strokeColor=#171717;strokeWidth=3;fontColor=#191919;" parent="1" source="47" target="32" edge="1">
                    <mxGeometry relative="1" as="geometry">
                        <Array as="points">
                            <mxPoint x="1080" y="-695"/>
                            <mxPoint x="1080" y="-430"/>
                            <mxPoint x="1380" y="-430"/>
                        </Array>
                        <mxPoint x="1150" y="-684.9999999999999" as="sourcePoint"/>
                    </mxGeometry>
                </mxCell>
                <mxCell id="7" style="edgeStyle=none;html=1;entryX=0;entryY=0.5;entryDx=0;entryDy=0;strokeWidth=2;strokeColor=#171717;fontColor=#191919;fontSize=18;" parent="1" target="16" edge="1">
                    <mxGeometry relative="1" as="geometry">
                        <Array as="points">
                            <mxPoint x="1180" y="-780"/>
                        </Array>
                        <mxPoint x="1190" y="-780" as="sourcePoint"/>
                    </mxGeometry>
                </mxCell>
                <mxCell id="8" value="&lt;span class=&quot;pl-en&quot; style=&quot;font-size: 18px;&quot;&gt;LassoShooting.fit&lt;/span&gt;" style="whiteSpace=wrap;html=1;fontSize=18;strokeColor=#6F0000;fillColor=#a20025;strokeWidth=5;fontColor=#ffffff;" parent="1" vertex="1">
                    <mxGeometry x="1040" y="-810" width="140" height="50" as="geometry"/>
                </mxCell>
                <mxCell id="9" style="edgeStyle=none;html=1;exitX=0.25;exitY=1;exitDx=0;exitDy=0;entryX=1;entryY=0.5;entryDx=0;entryDy=0;strokeColor=#171717;fontColor=#191919;strokeWidth=2;fontSize=18;" parent="1" source="16" target="3" edge="1">
                    <mxGeometry relative="1" as="geometry">
                        <Array as="points">
                            <mxPoint x="1350" y="-600"/>
                        </Array>
                    </mxGeometry>
                </mxCell>
                <mxCell id="10" style="edgeStyle=none;html=1;exitX=0.75;exitY=1;exitDx=0;exitDy=0;entryX=0;entryY=0.5;entryDx=0;entryDy=0;strokeColor=#171717;fontColor=#191919;strokeWidth=2;fontSize=18;" parent="1" source="16" target="34" edge="1">
                    <mxGeometry relative="1" as="geometry">
                        <Array as="points">
                            <mxPoint x="1410" y="-600"/>
                        </Array>
                    </mxGeometry>
                </mxCell>
                <mxCell id="12" style="edgeStyle=none;rounded=1;html=1;exitX=1;exitY=0.5;exitDx=0;exitDy=0;entryX=0;entryY=0.5;entryDx=0;entryDy=0;strokeColor=#171717;strokeWidth=2;fontColor=#191919;fontSize=18;" parent="1" source="16" target="23" edge="1">
                    <mxGeometry relative="1" as="geometry">
                        <mxPoint x="1530" y="-730" as="sourcePoint"/>
                    </mxGeometry>
                </mxCell>
                <mxCell id="13" style="edgeStyle=none;rounded=1;html=1;exitX=1;exitY=0.25;exitDx=0;exitDy=0;entryX=0;entryY=0.75;entryDx=0;entryDy=0;strokeColor=#171717;strokeWidth=2;fontColor=#191919;fontSize=18;" parent="1" source="16" target="26" edge="1">
                    <mxGeometry relative="1" as="geometry">
                        <Array as="points">
                            <mxPoint x="1600" y="-795"/>
                            <mxPoint x="1600" y="-865"/>
                        </Array>
                    </mxGeometry>
                </mxCell>
                <mxCell id="15" style="edgeStyle=none;rounded=1;html=1;exitX=1;exitY=0.75;exitDx=0;exitDy=0;entryX=0;entryY=0.5;entryDx=0;entryDy=0;strokeColor=#171717;strokeWidth=2;fontColor=#191919;fontSize=18;" parent="1" source="16" target="19" edge="1">
                    <mxGeometry relative="1" as="geometry">
                        <mxPoint x="1530" y="-700" as="sourcePoint"/>
                        <Array as="points">
                            <mxPoint x="1600" y="-765"/>
                            <mxPoint x="1600" y="-705"/>
                        </Array>
                    </mxGeometry>
                </mxCell>
                <mxCell id="43" style="edgeStyle=none;html=1;exitX=0.5;exitY=1;exitDx=0;exitDy=0;entryX=0.5;entryY=0;entryDx=0;entryDy=0;fontColor=#191919;strokeColor=#171717;strokeWidth=2;fontSize=18;" parent="1" source="16" target="32" edge="1">
                    <mxGeometry relative="1" as="geometry"/>
                </mxCell>
                <mxCell id="61" style="edgeStyle=none;html=1;exitX=0.75;exitY=0;exitDx=0;exitDy=0;entryX=0;entryY=0.25;entryDx=0;entryDy=0;fontColor=#FFFFFF;strokeColor=#171717;fontSize=18;" parent="1" source="16" target="28" edge="1">
                    <mxGeometry relative="1" as="geometry">
                        <Array as="points">
                            <mxPoint x="1410" y="-975"/>
                        </Array>
                    </mxGeometry>
                </mxCell>
                <mxCell id="16" value="rlasso" style="whiteSpace=wrap;html=1;fontSize=18;strokeColor=#6F0000;strokeWidth=5;fillColor=#a20025;fontColor=#ffffff;" parent="1" vertex="1">
                    <mxGeometry x="1320" y="-810" width="120" height="60" as="geometry"/>
                </mxCell>
                <mxCell id="17" style="edgeStyle=none;html=1;exitX=0.5;exitY=1;exitDx=0;exitDy=0;entryX=0.5;entryY=0;entryDx=0;entryDy=0;strokeWidth=2;strokeColor=#171717;fontColor=#191919;fontSize=18;" parent="1" source="49" target="16" edge="1">
                    <mxGeometry relative="1" as="geometry">
                        <mxPoint x="1380" y="-860" as="sourcePoint"/>
                        <Array as="points">
                            <mxPoint x="1300" y="-870"/>
                            <mxPoint x="1380" y="-870"/>
                        </Array>
                    </mxGeometry>
                </mxCell>
                <mxCell id="65" style="edgeStyle=none;html=1;exitX=1;exitY=0.5;exitDx=0;exitDy=0;entryX=0;entryY=0.5;entryDx=0;entryDy=0;strokeWidth=3;strokeColor=#000000;" parent="1" source="19" target="64" edge="1">
                    <mxGeometry relative="1" as="geometry"/>
                </mxCell>
                <mxCell id="19" value="rlassoEffect" style="whiteSpace=wrap;html=1;fontSize=18;strokeColor=#6F0000;strokeWidth=2;fillColor=#a20025;fontColor=#ffffff;" parent="1" vertex="1">
                    <mxGeometry x="1655" y="-730" width="145" height="50" as="geometry"/>
                </mxCell>
                <mxCell id="56" style="edgeStyle=none;html=1;exitX=1;exitY=0.5;exitDx=0;exitDy=0;fontColor=#FFFFFF;strokeColor=#171717;fontSize=18;strokeWidth=3;dashed=1;" parent="1" source="23" target="40" edge="1">
                    <mxGeometry relative="1" as="geometry"/>
                </mxCell>
                <mxCell id="63" value="" style="edgeStyle=none;html=1;" parent="1" source="23" target="26" edge="1">
                    <mxGeometry relative="1" as="geometry"/>
                </mxCell>
                <mxCell id="23" value="rlassologitEffect" style="whiteSpace=wrap;html=1;fontSize=18;fontColor=#ffffff;strokeColor=#6F0000;strokeWidth=2;fillColor=#a20025;gradientDirection=north;" parent="1" vertex="1">
                    <mxGeometry x="1655" y="-810" width="145" height="60" as="geometry"/>
                </mxCell>
                <mxCell id="24" value="rlassoATE" style="whiteSpace=wrap;html=1;fontSize=18;fontColor=#ffffff;strokeColor=#6F0000;strokeWidth=2;fillColor=#a20025;gradientDirection=north;" parent="1" vertex="1">
                    <mxGeometry x="1850" y="-910" width="120" height="60" as="geometry"/>
                </mxCell>
                <mxCell id="25" style="edgeStyle=none;rounded=0;html=1;exitX=1;exitY=0.5;exitDx=0;exitDy=0;entryX=0;entryY=0.5;entryDx=0;entryDy=0;dashed=1;strokeColor=#171717;strokeWidth=2;fontColor=#FFFFFF;fontSize=18;" parent="1" source="26" target="24" edge="1">
                    <mxGeometry relative="1" as="geometry"/>
                </mxCell>
                <mxCell id="26" value="rlassoLATE" style="whiteSpace=wrap;html=1;fontSize=18;fontColor=#ffffff;strokeColor=#6F0000;strokeWidth=2;fillColor=#a20025;gradientDirection=north;" parent="1" vertex="1">
                    <mxGeometry x="1655" y="-910" width="140" height="60" as="geometry"/>
                </mxCell>
                <mxCell id="27" style="edgeStyle=none;rounded=0;html=1;exitX=1;exitY=0.5;exitDx=0;exitDy=0;entryX=0;entryY=0.5;entryDx=0;entryDy=0;dashed=1;strokeColor=#171717;strokeWidth=2;fontColor=#FFFFFF;fontSize=18;" parent="1" source="28" target="42" edge="1">
                    <mxGeometry relative="1" as="geometry"/>
                </mxCell>
                <mxCell id="28" value="rlassoLATET." style="whiteSpace=wrap;html=1;fontSize=18;fontColor=#ffffff;strokeColor=#6F0000;strokeWidth=2;fillColor=#a20025;gradientDirection=north;" parent="1" vertex="1">
                    <mxGeometry x="1655" y="-990" width="140" height="60" as="geometry"/>
                </mxCell>
                <mxCell id="29" style="edgeStyle=none;html=1;exitX=0.5;exitY=1;exitDx=0;exitDy=0;entryX=0.5;entryY=0;entryDx=0;entryDy=0;strokeColor=#171717;fontColor=#191919;strokeWidth=2;fontSize=18;" parent="1" source="50" target="8" edge="1">
                    <mxGeometry relative="1" as="geometry">
                        <mxPoint x="1110" y="-860" as="sourcePoint"/>
                    </mxGeometry>
                </mxCell>
                <mxCell id="30" style="edgeStyle=none;html=1;exitX=0.75;exitY=1;exitDx=0;exitDy=0;entryX=0.25;entryY=0;entryDx=0;entryDy=0;fillColor=#008a00;strokeColor=#171717;strokeWidth=2;fontColor=#191919;fontSize=18;" parent="1" source="50" target="16" edge="1">
                    <mxGeometry relative="1" as="geometry">
                        <Array as="points">
                            <mxPoint x="1140" y="-840"/>
                            <mxPoint x="1320" y="-840"/>
                        </Array>
                        <mxPoint x="1140" y="-860" as="sourcePoint"/>
                    </mxGeometry>
                </mxCell>
                <mxCell id="32" value="rlassoIV" style="whiteSpace=wrap;html=1;fontSize=15;strokeColor=#6F0000;strokeWidth=2;fillColor=#a20025;gradientDirection=north;fontColor=#ffffff;" parent="1" vertex="1">
                    <mxGeometry x="1305" y="-530" width="150" height="60" as="geometry"/>
                </mxCell>
                <mxCell id="33" style="edgeStyle=none;html=1;exitX=0.5;exitY=1;exitDx=0;exitDy=0;entryX=1;entryY=0.5;entryDx=0;entryDy=0;dashed=1;strokeColor=#171717;strokeWidth=2;fontColor=#191919;fontSize=18;" parent="1" source="34" target="32" edge="1">
                    <mxGeometry relative="1" as="geometry">
                        <Array as="points">
                            <mxPoint x="1515" y="-510"/>
                        </Array>
                    </mxGeometry>
                </mxCell>
                <mxCell id="34" value="rlassoIVselectZ" style="whiteSpace=wrap;html=1;fontSize=18;strokeWidth=2;gradientDirection=north;fillColor=#008a00;fontColor=#191919;strokeColor=#171717;" parent="1" vertex="1">
                    <mxGeometry x="1440" y="-630" width="150" height="60" as="geometry"/>
                </mxCell>
                <mxCell id="40" value="&lt;span class=&quot;pl-en&quot; style=&quot;font-size: 18px&quot;&gt;rlassologitEffects&lt;br&gt;.default&lt;/span&gt;" style="whiteSpace=wrap;html=1;strokeColor=#6F0000;strokeWidth=2;fillColor=#a20025;fontColor=#ffffff;fontSize=18;" parent="1" vertex="1">
                    <mxGeometry x="1840" y="-810" width="150" height="60" as="geometry"/>
                </mxCell>
                <mxCell id="42" value="RlassoATET" style="whiteSpace=wrap;html=1;strokeColor=#6F0000;strokeWidth=2;fillColor=#a20025;fontColor=#ffffff;fontSize=18;" parent="1" vertex="1">
                    <mxGeometry x="1850" y="-990" width="120" height="60" as="geometry"/>
                </mxCell>
                <mxCell id="44" value="rlassoIVselectZ" style="whiteSpace=wrap;html=1;fontSize=18;strokeWidth=2;gradientDirection=north;fillColor=#a20025;fontColor=#ffffff;strokeColor=#6F0000;" parent="1" vertex="1">
                    <mxGeometry x="1440" y="-630" width="150" height="60" as="geometry"/>
                </mxCell>
                <mxCell id="47" value="tsls" style="whiteSpace=wrap;html=1;fontSize=18;fontColor=#ffffff;strokeColor=#6F0000;strokeWidth=5;fillColor=#a20025;gradientDirection=north;" parent="1" vertex="1">
                    <mxGeometry x="1155" y="-725" width="120" height="60" as="geometry"/>
                </mxCell>
                <mxCell id="49" value="lambdaCalculation" style="whiteSpace=wrap;html=1;fontSize=18;strokeColor=#6F0000;strokeWidth=4;fillColor=#a20025;fontColor=#ffffff;" parent="1" vertex="1">
                    <mxGeometry x="1220" y="-1000" width="160" height="60" as="geometry"/>
                </mxCell>
                <mxCell id="50" value="init_values" style="whiteSpace=wrap;html=1;fontSize=18;dashed=1;dashPattern=1 1;strokeColor=#6F0000;strokeWidth=5;fillColor=#a20025;fontColor=#ffffff;" parent="1" vertex="1">
                    <mxGeometry x="1050" y="-1000" width="120" height="60" as="geometry"/>
                </mxCell>
                <mxCell id="59" style="edgeStyle=none;html=1;exitX=1;exitY=0.25;exitDx=0;exitDy=0;entryX=0;entryY=0.5;entryDx=0;entryDy=0;fontColor=#FFFFFF;strokeColor=#171717;fontSize=18;" parent="1" source="52" target="28" edge="1">
                    <mxGeometry relative="1" as="geometry">
                        <Array as="points">
                            <mxPoint x="1600" y="-925"/>
                            <mxPoint x="1600" y="-960"/>
                        </Array>
                    </mxGeometry>
                </mxCell>
                <mxCell id="60" style="edgeStyle=none;html=1;entryX=0;entryY=0.5;entryDx=0;entryDy=0;fontColor=#FFFFFF;strokeColor=#171717;fontSize=18;exitX=1;exitY=0.5;exitDx=0;exitDy=0;" parent="1" source="52" target="26" edge="1">
                    <mxGeometry relative="1" as="geometry">
                        <mxPoint x="1570" y="-900" as="sourcePoint"/>
                        <Array as="points">
                            <mxPoint x="1600" y="-910"/>
                            <mxPoint x="1600" y="-880"/>
                        </Array>
                    </mxGeometry>
                </mxCell>
                <mxCell id="62" style="edgeStyle=none;html=1;exitX=1;exitY=0.75;exitDx=0;exitDy=0;entryX=0;entryY=0.25;entryDx=0;entryDy=0;strokeColor=#000000;strokeWidth=2;" parent="1" source="52" target="23" edge="1">
                    <mxGeometry relative="1" as="geometry">
                        <Array as="points">
                            <mxPoint x="1580" y="-895"/>
                            <mxPoint x="1580" y="-820"/>
                            <mxPoint x="1630" y="-820"/>
                        </Array>
                    </mxGeometry>
                </mxCell>
                <mxCell id="52" value="rlassologit" style="whiteSpace=wrap;html=1;fontSize=18;fontColor=#ffffff;strokeColor=#6F0000;strokeWidth=2;fillColor=#a20025;gradientDirection=north;labelBackgroundColor=none;" parent="1" vertex="1">
                    <mxGeometry x="1440" y="-940" width="120" height="60" as="geometry"/>
                </mxCell>
                <mxCell id="64" value="rlassoEffects" style="whiteSpace=wrap;html=1;fontSize=18;strokeColor=#6F0000;strokeWidth=2;fillColor=#a20025;fontColor=#ffffff;" parent="1" vertex="1">
                    <mxGeometry x="1840" y="-730" width="145" height="50" as="geometry"/>
                </mxCell>
            </root>
        </mxGraphModel>
    </diagram>
</mxfile>